<?xml version="1.0" encoding="UTF-8"?>
<!-- Generator: Adobe Illustrator 19.1.0, SVG Export Plug-In . SVG Version: 6.00 Build 0)  -->
<svg xmlns="http://www.w3.org/2000/svg" xmlns:xlink="http://www.w3.org/1999/xlink" xmlns:dc="http://purl.org/dc/elements/1.1/" xmlns:cc="http://creativecommons.org/ns#" xmlns:rdf="http://www.w3.org/1999/02/22-rdf-syntax-ns#" version="1.1" id="DESIGNS" x="0px" y="0px" width="32px" height="32px" viewBox="0 0 32 32" style="enable-background:new 0 0 32 32;" xml:space="preserve">
<title property="dc:title">to edit</title><desc property="dc:description">An icon for "edit" from the Avocado series on to [icon]. Downloaded from http://www.toicon.com/icons/avocado_edit by 80.57.242.227 on 2018-12-05. Licensed CC-BY, see http://toicon.com/license/ for details.</desc>
<g>
	<polygon class="avocado_zes" points="10.5,23.833 10.5,23.5 21.5,23.5 21.5,23.833 16,31.167  " style="fill: #FFFAEE;"/>
	<g>
		<polygon class="avocado_twee" points="18.375,28 13.625,28 16,31.167   " style="fill: #3D3935;"/>
	</g>
	<g>
		<rect x="10.5" y="10.5" class="avocado_twintig" width="11" height="13" style="fill: #EAD13F;"/>
	</g>
	<g>
		<rect x="10.5" y="6.5" class="avocado_acht" width="11" height="4" style="fill: #A3AEB5;"/>
	</g>
	<path class="avocado_vijftien" d="M21.5,6.5h-11V3c0-1.381,1.119-2.5,2.5-2.5h6c1.381,0,2.5,1.119,2.5,2.5V6.5z" style="fill: #D36781;"/>
	<path class="avocado_een" d="M19,0h-6c-1.657,0-3,1.343-3,3v21l6,8l6-8V3C22,1.343,20.657,0,19,0z M16,30.333L11.25,24h9.5   L16,30.333z M11,23V11h10v12H11z M21,10H11V7h10V10z M11,6V3c0-1.103,0.897-2,2-2h6c1.103,0,2,0.897,2,2v3H11z" style="fill: #231F20;"/>
</g>
<metadata><work rdf:about=""><format>image/svg+xml</format><type rdf:resource="http://purl.org/dc/dcmitype/StillImage"/><license rdf:resource="http://creativecommons.org/licenses/by/4.0/"/><attributionname>Shannon E Thomas</attributionname><attributionurl>http://www.toicon.com/icons/avocado_edit</attributionurl></work></metadata></svg>
